<?xml version="1.0" standalone="no"?>
<!DOCTYPE svg PUBLIC "-//W3C//DTD SVG 20010904//EN"
 "http://www.w3.org/TR/2001/REC-SVG-20010904/DTD/svg10.dtd">
<svg version="1.0" xmlns="http://www.w3.org/2000/svg"
 width="400.000000pt" height="400.000000pt" viewBox="0 0 400.000000 400.000000"
 preserveAspectRatio="xMidYMid meet">

<g transform="translate(0.000000,400.000000) scale(0.100000,-0.100000)"
fill="#1F000B" stroke="none">
<path d="M770 3445 c0 -277 8 -312 91 -398 l49 -51 -41 -40 c-124 -123 -200
-303 -201 -480 -2 -181 37 -308 137 -446 39 -53 149 -160 164 -160 7 0 11 -33
11 -91 0 -50 -3 -89 -7 -87 -5 2 -57 28 -118 58 -60 30 -136 67 -168 82 l-58
27 3 -282 3 -283 37 -75 c48 -96 105 -153 219 -214 l92 -50 14 -54 c62 -248
259 -390 541 -391 168 0 312 -49 416 -142 l53 -47 44 45 c85 87 250 144 414
144 100 0 215 25 289 62 124 63 226 194 257 332 l12 55 99 52 c144 76 216 166
247 307 11 52 16 542 6 542 -3 0 -82 -38 -175 -85 l-170 -85 0 90 c0 52 4 90
10 90 5 0 43 33 83 73 85 84 144 179 183 292 25 72 28 93 28 220 0 124 -3 149
-26 218 -32 96 -92 198 -159 271 l-51 56 44 42 c81 79 83 88 86 381 l3 258
-558 -280 c-358 -179 -567 -289 -584 -307 -38 -42 -59 -78 -73 -125 l-12 -41
-23 61 c-40 110 -42 111 -651 415 -303 152 -553 276 -556 276 -2 0 -4 -106 -4
-235z m694 -485 c156 -23 307 -134 378 -276 99 -199 61 -430 -95 -586 -112
-112 -228 -154 -399 -146 -90 5 -105 8 -181 46 -129 64 -222 169 -266 300 -28
83 -29 225 -1 314 47 152 187 289 340 332 95 26 132 29 224 16z m1231 0 c106
-15 217 -74 293 -154 193 -207 190 -512 -7 -706 -110 -108 -209 -150 -362
-150 -187 0 -345 90 -442 253 -93 154 -88 370 12 526 78 122 206 207 346 230
69 12 81 12 160 1z m-618 -730 c73 -44 81 -120 25 -230 -42 -82 -91 -160 -101
-160 -9 0 -106 169 -124 218 -10 23 -17 50 -17 59 0 31 39 98 67 115 38 24
110 23 150 -2z m-155 -1187 c20 -21 48 -63 62 -93 14 -32 25 -47 26 -35 1 32
57 121 92 148 18 14 282 149 586 301 l553 277 -3 -158 c-3 -139 -6 -163 -25
-203 -48 -96 -60 -103 -651 -396 -304 -151 -557 -274 -563 -274 -5 0 -258 124
-562 276 -589 295 -597 300 -645 397 -22 44 -24 61 -24 195 0 81 1 150 1 155
1 4 252 -119 559 -272 438 -219 565 -287 594 -318z"/>
<path d="M1305 2446 c-72 -32 -116 -101 -117 -180 -2 -192 222 -277 349 -133
86 98 56 250 -60 306 -50 24 -126 27 -172 7z"/>
<path d="M2535 2441 c-100 -46 -143 -164 -96 -266 82 -180 360 -134 379 63 15
158 -140 269 -283 203z"/>
</g>
</svg>